<svg viewBox="0 0 1000 800" xmlns="http://www.w3.org/2000/svg">
  <!-- Background -->
  <rect width="1000" height="800" fill="#ffffff"/>
  
  <!-- Incoming Requests -->
  <text x="480" y="50" font-size="16" text-anchor="middle" font-weight="bold">Incoming Requests</text>
  
  <!-- Model-Specific Queues -->
  <rect x="200" y="200" width="120" height="50" fill="#e1bee7" rx="5"/>
  <text x="260" y="230" font-size="12" text-anchor="middle" font-weight="bold">VIT Queue</text>
  
  <rect x="400" y="200" width="120" height="50" fill="#e1bee7" rx="5"/>
  <text x="460" y="230" font-size="12" text-anchor="middle" font-weight="bold">ResNet Queue</text>
  
  <rect x="600" y="200" width="120" height="50" fill="#e1bee7" rx="5"/>
  <text x="660" y="230" font-size="12" text-anchor="middle" font-weight="bold">ShuffleNet Queue</text>
  
  <!-- Batch Profiler -->
  <rect x="100" y="350" width="160" height="60" fill="#fff59d" rx="5"/>
  <text x="180" y="385" font-size="14" text-anchor="middle" font-weight="bold">Batch Profiler</text>
  
  <!-- Scheduler Core (Enlarged) -->
  <rect x="300" y="320" width="360" height="120" fill="#a5d6a7" rx="5"/>
  <text x="480" y="355" font-size="16" text-anchor="middle" font-weight="bold">Scheduler Core</text>
  <text x="480" y="385" font-size="12" text-anchor="middle">Squishy Bin Packing Algorithm</text>
  <text x="480" y="405" font-size="12" text-anchor="middle">Creates Schedule (List of Nodes)</text>
  <text x="480" y="425" font-size="12" text-anchor="middle">Dynamic Schedule Updates</text>

  <!-- Schedule (Nodes List) -->
  <rect x="50" y="480" width="900" height="140" fill="#ffcc80" rx="5"/>
  <text x="480" y="505" font-size="16" text-anchor="middle" font-weight="bold">Nodes List (Schedule)</text>
  
  <!-- Node 1 with Sessions -->
  <rect x="70" y="520" width="400" height="80" fill="#ffe0b2" rx="3"/>
  <text x="270" y="540" font-size="14" text-anchor="middle" font-weight="bold">Node 1 (Round Robin Execution)</text>
  <rect x="80" y="550" width="380" height="40" fill="#fff3e0" rx="2"/>
  <text x="270" y="565" font-size="11" text-anchor="middle">Session 1: VIT, batch_size=32, occupancy=0.6</text>
  <text x="270" y="580" font-size="11" text-anchor="middle">Session 2: ResNet, batch_size=16, occupancy=0.4</text>
  
  <!-- Node 2 with Sessions -->
  <rect x="480" y="520" width="400" height="80" fill="#ffe0b2" rx="3"/>
  <text x="680" y="540" font-size="14" text-anchor="middle" font-weight="bold">Node 2 (Round Robin Execution)</text>
  <rect x="490" y="550" width="380" height="40" fill="#fff3e0" rx="2"/>
  <text x="680" y="565" font-size="11" text-anchor="middle">Session 1: ShuffleNet, batch_size=64, occupancy=0.7</text>
  <text x="680" y="580" font-size="11" text-anchor="middle">Session 2: VIT, batch_size=16, occupancy=0.3</text>
  
  <!-- Ray Workers -->
  <rect x="50" y="680" width="900" height="80" fill="#90caf9" rx="5"/>
  <text x="480" y="705" font-size="16" text-anchor="middle" font-weight="bold">Ray Workers (num_gpus=1)</text>
  
  <!-- Individual Workers -->
  <rect x="70" y="720" width="400" height="30" fill="#64b5f6" rx="3"/>
  <text x="270" y="740" font-size="12" text-anchor="middle">Ray Worker 1 (GPU 0) ← Executes Node 1</text>
  
  <rect x="480" y="720" width="400" height="30" fill="#64b5f6" rx="3"/>
  <text x="680" y="740" font-size="12" text-anchor="middle">Ray Worker 2 (GPU 1) ← Executes Node 2</text>
  
  <!-- Arrows -->
  <!-- Requests to Queues -->
  <path d="M480 70 L260 200" fill="none" stroke="#666" stroke-width="2" marker-end="url(#arrow)"/>
  <path d="M480 70 L460 200" fill="none" stroke="#666" stroke-width="2" marker-end="url(#arrow)"/>
  <path d="M480 70 L660 200" fill="none" stroke="#666" stroke-width="2" marker-end="url(#arrow)"/>
  
  <!-- Batch Profiler to Scheduler -->
  <path d="M260 380 L300 380" fill="none" stroke="#666" stroke-width="2" marker-end="url(#arrow)"/>
  
  <!-- Queues to Scheduler -->
  <path d="M260 250 L380 320" fill="none" stroke="#666" stroke-width="2" marker-end="url(#arrow)"/>
  <path d="M460 250 L480 320" fill="none" stroke="#666" stroke-width="2" marker-end="url(#arrow)"/>
  <path d="M660 250 L580 320" fill="none" stroke="#666" stroke-width="2" marker-end="url(#arrow)"/>
  
  <!-- Scheduler to Schedule -->
  <path d="M480 440 L480 480" fill="none" stroke="#666" stroke-width="2" marker-end="url(#arrow)"/>
  
  <!-- Nodes to Ray Workers -->
  <path d="M270 600 L270 720" fill="none" stroke="#666" stroke-width="2" marker-end="url(#arrow)"/>
  <path d="M680 600 L680 720" fill="none" stroke="#666" stroke-width="2" marker-end="url(#arrow)"/>
  
  <!-- Arrow definition -->
  <defs>
    <marker id="arrow" markerWidth="10" markerHeight="7" refX="9" refY="3.5" orient="auto">
      <polygon points="0 0, 10 3.5, 0 7" fill="#666"/>
    </marker>
  </defs>
</svg>